<?xml version="1.0" standalone="no"?>
<!DOCTYPE svg PUBLIC "-//W3C//DTD SVG 20010904//EN"
 "http://www.w3.org/TR/2001/REC-SVG-20010904/DTD/svg10.dtd">
<svg version="1.0" xmlns="http://www.w3.org/2000/svg"
 width="1280.000000pt" height="1221.000000pt" viewBox="0 0 1280.000000 1221.000000"
 preserveAspectRatio="xMidYMid meet">
<metadata>
Created by potrace 1.15, written by Peter Selinger 2001-2017
</metadata>
<g transform="translate(0.000000,1221.000000) scale(0.100000,-0.100000)"
fill="#000000" stroke="none">
<path d="M1235 12203 c-233 -20 -429 -72 -590 -156 -178 -94 -440 -408 -563
-677 -60 -131 -75 -206 -76 -380 -1 -175 5 -205 61 -298 119 -195 508 -588
1093 -1103 727 -640 2144 -1829 3637 -3053 l522 -428 -146 -176 c-81 -97 -294
-353 -473 -568 -179 -215 -453 -546 -610 -735 -573 -692 -814 -963 -1235
-1385 -176 -177 -484 -476 -685 -665 -201 -189 -644 -621 -985 -960 l-620
-617 -90 -1 c-218 -2 -340 -65 -409 -211 -29 -61 -31 -72 -31 -180 0 -103 3
-122 28 -180 35 -83 112 -187 164 -223 52 -36 126 -56 233 -64 174 -12 283 27
396 142 103 105 141 220 111 334 l-15 55 182 176 c374 363 836 801 1176 1115
113 105 302 280 420 390 685 638 1139 1037 1501 1316 149 116 633 465 674 486
57 30 435 324 1037 806 l397 317 394 -317 c623 -503 1070 -852 1146 -896 48
-28 550 -390 665 -480 371 -289 816 -679 1456 -1277 91 -85 294 -274 450 -420
384 -357 606 -568 1046 -992 l372 -358 -15 -43 c-23 -64 -14 -160 21 -232 35
-71 140 -179 212 -217 99 -53 287 -61 428 -17 56 17 77 30 126 79 71 71 136
195 153 293 21 127 -29 296 -110 368 -77 67 -237 113 -370 107 l-63 -3 -667
666 c-368 367 -807 798 -978 959 -830 784 -1221 1207 -2055 2225 -140 171
-407 495 -595 720 -465 560 -568 686 -564 689 89 64 1939 1585 2494 2050 1508
1263 2022 1712 2391 2087 264 269 344 364 398 479 31 64 31 66 31 230 0 198
-12 254 -90 415 -86 178 -192 329 -344 488 -173 181 -418 276 -790 306 -289
23 -555 -52 -782 -220 -160 -119 -1048 -1036 -1804 -1864 -471 -515 -825 -897
-1215 -1310 -624 -662 -997 -1064 -1266 -1368 l-50 -57 -210 232 c-266 296
-618 675 -1050 1134 -320 339 -832 894 -1324 1434 -700 768 -1601 1701 -1746
1807 -241 177 -506 252 -799 226z"/>
</g>
</svg>
